<svg version="1.1" xmlns="http://www.w3.org/2000/svg" viewBox="0 0 1283.81884765625 788" width="2567.6376953125" height="1576">
  <!-- svg-source:excalidraw -->
  
  <defs>
    <style class="style-fonts">
      @font-face {
        font-family: "Virgil";
        src: url("https://excalidraw.com/Virgil.woff2");
      }
      @font-face {
        font-family: "Cascadia";
        src: url("https://excalidraw.com/Cascadia.woff2");
      }
    </style>
  </defs>
  <rect x="0" y="0" width="1283.81884765625" height="788" fill="#ffffff"></rect><g stroke-linecap="round" transform="translate(142.4765625 117.20703125) rotate(0 145.501953125 133.2734375)"><path d="M32 0 M32 0 C109.82 0.35, 188.56 0.31, 259 0 M32 0 C82.49 0.7, 132.8 -0.41, 259 0 M259 0 C280.4 1.12, 290.13 12.41, 291 32 M259 0 C280.7 -1.6, 290.9 9.16, 291 32 M291 32 C291.42 79.76, 292.04 126.68, 291 234.55 M291 32 C291.13 111.64, 290 191.24, 291 234.55 M291 234.55 C292.27 255.32, 280.78 267.68, 259 266.55 M291 234.55 C289.22 257.77, 280.33 266.3, 259 266.55 M259 266.55 C174.85 266.93, 93.76 267.85, 32 266.55 M259 266.55 C176.03 266.56, 92.6 266.31, 32 266.55 M32 266.55 C11.13 267.12, -0.81 257.16, 0 234.55 M32 266.55 C11.08 268.74, 0.86 256.35, 0 234.55 M0 234.55 C-1.71 155.25, -2.22 75.62, 0 32 M0 234.55 C0.82 172.42, 0.99 110.33, 0 32 M0 32 C-1.35 9.85, 11.59 0.77, 32 0 M0 32 C-1.52 11.08, 8.93 0.37, 32 0" stroke="#000000" stroke-width="1" fill="none"></path></g><g stroke-linecap="round" transform="translate(276.98046875 67.515625) rotate(0 10.837890625 10.11328125)"><path d="M13.5 -0.49 C15.64 -0.15, 18.4 1.49, 19.68 3.35 C20.96 5.22, 21.44 8.43, 21.17 10.71 C20.91 12.98, 19.66 15.56, 18.08 17.02 C16.49 18.48, 13.74 19.14, 11.67 19.46 C9.61 19.78, 7.67 20.13, 5.68 18.94 C3.7 17.75, 0.41 14.35, -0.25 12.32 C-0.9 10.29, 0.76 8.48, 1.76 6.75 C2.76 5.02, 3.58 3.15, 5.74 1.96 C7.9 0.77, 13.33 -0.33, 14.7 -0.39 C16.07 -0.45, 14.02 1.38, 13.94 1.6 M7.32 0.35 C9.39 -0.13, 13.01 0.15, 15.28 1.05 C17.54 1.96, 19.9 3.92, 20.92 5.77 C21.94 7.63, 21.88 10.19, 21.4 12.2 C20.91 14.2, 19.96 16.3, 18.02 17.82 C16.08 19.35, 12.39 21.61, 9.75 21.35 C7.11 21.08, 3.92 17.79, 2.19 16.24 C0.46 14.69, -0.79 13.9, -0.61 12.02 C-0.43 10.14, 1.61 6.87, 3.27 4.97 C4.93 3.06, 8.77 1.22, 9.33 0.58 C9.9 -0.05, 6.73 0.88, 6.64 1.13" stroke="#000000" stroke-width="1" fill="none"></path></g><g stroke-linecap="round" transform="translate(280.625 406.54296875) rotate(0 10.837890625 10.11328125)"><path d="M15.51 0.49 C17.53 1.16, 19.41 4, 20.41 6.21 C21.41 8.42, 22.1 11.73, 21.5 13.75 C20.9 15.77, 18.83 17.22, 16.79 18.35 C14.75 19.49, 11.65 20.9, 9.25 20.57 C6.85 20.24, 3.88 17.91, 2.39 16.38 C0.89 14.86, 0.23 13.62, 0.28 11.43 C0.34 9.25, 1.41 5.2, 2.72 3.26 C4.04 1.31, 5.92 0.06, 8.17 -0.22 C10.42 -0.5, 14.4 0.89, 16.21 1.56 C18.02 2.24, 19.12 3.61, 19.03 3.83 M9.58 -0.61 C11.38 -1.17, 13.46 -0.8, 15.37 0.72 C17.29 2.24, 20.11 6.36, 21.09 8.5 C22.06 10.64, 22.04 11.96, 21.23 13.54 C20.42 15.12, 18.23 16.96, 16.24 17.98 C14.25 19, 11.4 20.05, 9.26 19.67 C7.13 19.29, 4.95 17.4, 3.41 15.7 C1.86 13.99, 0.3 11.54, -0.02 9.45 C-0.34 7.37, 0.15 4.69, 1.49 3.19 C2.84 1.7, 6.78 1.04, 8.06 0.48 C9.34 -0.08, 8.94 -0.35, 9.16 -0.16" stroke="#000000" stroke-width="1" fill="none"></path></g><g stroke-linecap="round" transform="translate(87.54296875 245) rotate(0 10.837890625 10.11328125)"><path d="M8.23 -0.23 C10.22 -0.65, 13.97 0.46, 16.2 1.6 C18.44 2.74, 20.89 4.68, 21.66 6.62 C22.42 8.55, 21.63 11.27, 20.81 13.22 C20 15.17, 18.83 17.11, 16.77 18.3 C14.71 19.49, 10.67 20.54, 8.44 20.36 C6.22 20.18, 4.94 18.96, 3.41 17.23 C1.87 15.5, -0.53 12.39, -0.76 9.98 C-1 7.57, -0.1 4.28, 1.99 2.77 C4.08 1.26, 9.44 1.32, 11.77 0.89 C14.1 0.47, 15.91 0.24, 15.97 0.23 M13.3 -0.92 C15.27 -0.48, 17.4 2.37, 19.01 4.47 C20.62 6.58, 23.17 9.48, 22.95 11.73 C22.74 13.98, 19.85 16.41, 17.73 17.96 C15.62 19.52, 12.57 20.82, 10.29 21.06 C8 21.31, 5.79 20.87, 4.03 19.42 C2.28 17.97, 0.27 14.92, -0.23 12.37 C-0.73 9.83, -0.1 6.3, 1.03 4.13 C2.16 1.97, 4.32 0.05, 6.55 -0.63 C8.77 -1.31, 13.23 -0.1, 14.38 0.07 C15.54 0.24, 13.51 0.27, 13.49 0.4" stroke="#000000" stroke-width="1" fill="none"></path></g><g stroke-linecap="round" transform="translate(466.234375 246.94921875) rotate(0 10.837890625 10.11328125)"><path d="M15.53 1.23 C17.64 2.3, 20.25 5.05, 21.19 7.01 C22.14 8.97, 22.01 10.99, 21.2 13 C20.39 15.02, 18.38 18.03, 16.31 19.12 C14.25 20.2, 11.01 19.75, 8.8 19.5 C6.59 19.26, 4.42 19.31, 3.04 17.67 C1.67 16.03, 0.7 12.07, 0.54 9.69 C0.38 7.31, 0.88 5.03, 2.07 3.4 C3.26 1.77, 5.03 0.01, 7.68 -0.1 C10.33 -0.21, 16.38 2.22, 17.98 2.74 C19.58 3.26, 17.58 2.93, 17.3 3.03 M10.21 -0.88 C12.39 -0.53, 16.27 2.61, 18.23 4.17 C20.2 5.74, 21.68 6.78, 22.02 8.52 C22.37 10.25, 21.53 12.77, 20.31 14.6 C19.09 16.44, 16.81 18.82, 14.7 19.52 C12.6 20.23, 9.94 19.7, 7.67 18.85 C5.4 18, 2.53 16.29, 1.07 14.43 C-0.39 12.56, -1.42 9.67, -1.09 7.66 C-0.77 5.65, 0.95 3.69, 3 2.35 C5.05 1, 9.81 -0.15, 11.2 -0.41 C12.58 -0.67, 11.36 0.79, 11.32 0.8" stroke="#000000" stroke-width="1" fill="none"></path></g><g transform="translate(599.859375 10) rotate(0 336.979736328125 384)"><text x="0" y="0" font-family="Virgil, Segoe UI Emoji" font-size="20.00697544642859px" fill="#000000" text-anchor="start" style="white-space: pre;" direction="ltr" dominant-baseline="text-before-edge">Premise: A player in monopoly is a peer in a network e.g. a validator</text><text x="0" y="24" font-family="Virgil, Segoe UI Emoji" font-size="20.00697544642859px" fill="#000000" text-anchor="start" style="white-space: pre;" direction="ltr" dominant-baseline="text-before-edge">on a blockchain network.</text><text x="0" y="48" font-family="Virgil, Segoe UI Emoji" font-size="20.00697544642859px" fill="#000000" text-anchor="start" style="white-space: pre;" direction="ltr" dominant-baseline="text-before-edge"></text><text x="0" y="72" font-family="Virgil, Segoe UI Emoji" font-size="20.00697544642859px" fill="#000000" text-anchor="start" style="white-space: pre;" direction="ltr" dominant-baseline="text-before-edge">Cheating:</text><text x="0" y="96" font-family="Virgil, Segoe UI Emoji" font-size="20.00697544642859px" fill="#000000" text-anchor="start" style="white-space: pre;" direction="ltr" dominant-baseline="text-before-edge">- Each player (peer) observes the other players (peers)</text><text x="0" y="120" font-family="Virgil, Segoe UI Emoji" font-size="20.00697544642859px" fill="#000000" text-anchor="start" style="white-space: pre;" direction="ltr" dominant-baseline="text-before-edge">- Each player (peer) observes the board state</text><text x="0" y="144" font-family="Virgil, Segoe UI Emoji" font-size="20.00697544642859px" fill="#000000" text-anchor="start" style="white-space: pre;" direction="ltr" dominant-baseline="text-before-edge">- Each player has a local memory (store) of a record of the </text><text x="0" y="168" font-family="Virgil, Segoe UI Emoji" font-size="20.00697544642859px" fill="#000000" text-anchor="start" style="white-space: pre;" direction="ltr" dominant-baseline="text-before-edge">  board state</text><text x="0" y="192" font-family="Virgil, Segoe UI Emoji" font-size="20.00697544642859px" fill="#000000" text-anchor="start" style="white-space: pre;" direction="ltr" dominant-baseline="text-before-edge">- Each player has a local memory of a record of the state</text><text x="0" y="216" font-family="Virgil, Segoe UI Emoji" font-size="20.00697544642859px" fill="#000000" text-anchor="start" style="white-space: pre;" direction="ltr" dominant-baseline="text-before-edge">  of each 'account' i.e. the player's bank balance</text><text x="0" y="240" font-family="Virgil, Segoe UI Emoji" font-size="20.00697544642859px" fill="#000000" text-anchor="start" style="white-space: pre;" direction="ltr" dominant-baseline="text-before-edge">- Players can confer on the state of the game</text><text x="0" y="264" font-family="Virgil, Segoe UI Emoji" font-size="20.00697544642859px" fill="#000000" text-anchor="start" style="white-space: pre;" direction="ltr" dominant-baseline="text-before-edge">- The game is adversarial by default, therefore behaviours are</text><text x="0" y="288" font-family="Virgil, Segoe UI Emoji" font-size="20.00697544642859px" fill="#000000" text-anchor="start" style="white-space: pre;" direction="ltr" dominant-baseline="text-before-edge">  to seek out cheating or gaining an advantage</text><text x="0" y="312" font-family="Virgil, Segoe UI Emoji" font-size="20.00697544642859px" fill="#000000" text-anchor="start" style="white-space: pre;" direction="ltr" dominant-baseline="text-before-edge"></text><text x="0" y="336" font-family="Virgil, Segoe UI Emoji" font-size="20.00697544642859px" fill="#000000" text-anchor="start" style="white-space: pre;" direction="ltr" dominant-baseline="text-before-edge">Agreement on state:</text><text x="0" y="360" font-family="Virgil, Segoe UI Emoji" font-size="20.00697544642859px" fill="#000000" text-anchor="start" style="white-space: pre;" direction="ltr" dominant-baseline="text-before-edge">- Similarly to preventing cheating, each player has their own</text><text x="0" y="384" font-family="Virgil, Segoe UI Emoji" font-size="20.00697544642859px" fill="#000000" text-anchor="start" style="white-space: pre;" direction="ltr" dominant-baseline="text-before-edge">  view of the state of the game, account balances, and position</text><text x="0" y="408" font-family="Virgil, Segoe UI Emoji" font-size="20.00697544642859px" fill="#000000" text-anchor="start" style="white-space: pre;" direction="ltr" dominant-baseline="text-before-edge"></text><text x="0" y="432" font-family="Virgil, Segoe UI Emoji" font-size="20.00697544642859px" fill="#000000" text-anchor="start" style="white-space: pre;" direction="ltr" dominant-baseline="text-before-edge">Communication problems:</text><text x="0" y="456" font-family="Virgil, Segoe UI Emoji" font-size="20.00697544642859px" fill="#000000" text-anchor="start" style="white-space: pre;" direction="ltr" dominant-baseline="text-before-edge">- Players have direct and indirect paths to communicate</text><text x="0" y="480" font-family="Virgil, Segoe UI Emoji" font-size="20.00697544642859px" fill="#000000" text-anchor="start" style="white-space: pre;" direction="ltr" dominant-baseline="text-before-edge">- Players can ask each other what happened in a turn and can </text><text x="0" y="504" font-family="Virgil, Segoe UI Emoji" font-size="20.00697544642859px" fill="#000000" text-anchor="start" style="white-space: pre;" direction="ltr" dominant-baseline="text-before-edge">  seek consensus to ensure no cheating</text><text x="0" y="528" font-family="Virgil, Segoe UI Emoji" font-size="20.00697544642859px" fill="#000000" text-anchor="start" style="white-space: pre;" direction="ltr" dominant-baseline="text-before-edge"></text><text x="0" y="552" font-family="Virgil, Segoe UI Emoji" font-size="20.00697544642859px" fill="#000000" text-anchor="start" style="white-space: pre;" direction="ltr" dominant-baseline="text-before-edge">Decide who takes the next turn:</text><text x="0" y="576" font-family="Virgil, Segoe UI Emoji" font-size="20.00697544642859px" fill="#000000" text-anchor="start" style="white-space: pre;" direction="ltr" dominant-baseline="text-before-edge">- Peers / players can agree to run in a specific order</text><text x="0" y="600" font-family="Virgil, Segoe UI Emoji" font-size="20.00697544642859px" fill="#000000" text-anchor="start" style="white-space: pre;" direction="ltr" dominant-baseline="text-before-edge">- Players know who took the last turn, who is currently taking</text><text x="0" y="624" font-family="Virgil, Segoe UI Emoji" font-size="20.00697544642859px" fill="#000000" text-anchor="start" style="white-space: pre;" direction="ltr" dominant-baseline="text-before-edge">  a turn and therefore who is next to take a turn</text><text x="0" y="648" font-family="Virgil, Segoe UI Emoji" font-size="20.00697544642859px" fill="#000000" text-anchor="start" style="white-space: pre;" direction="ltr" dominant-baseline="text-before-edge"></text><text x="0" y="672" font-family="Virgil, Segoe UI Emoji" font-size="20.00697544642859px" fill="#000000" text-anchor="start" style="white-space: pre;" direction="ltr" dominant-baseline="text-before-edge">How to allow the correct people to join the game:</text><text x="0" y="696" font-family="Virgil, Segoe UI Emoji" font-size="20.00697544642859px" fill="#000000" text-anchor="start" style="white-space: pre;" direction="ltr" dominant-baseline="text-before-edge">- Have a record of pre-approved players based on an address </text><text x="0" y="720" font-family="Virgil, Segoe UI Emoji" font-size="20.00697544642859px" fill="#000000" text-anchor="start" style="white-space: pre;" direction="ltr" dominant-baseline="text-before-edge">  (i.e. a smart contract)</text><text x="0" y="744" font-family="Virgil, Segoe UI Emoji" font-size="20.00697544642859px" fill="#000000" text-anchor="start" style="white-space: pre;" direction="ltr" dominant-baseline="text-before-edge">- Have a unique identifier for each player (i.e. an EOA)</text></g><g stroke-linecap="round"><g transform="translate(288.21875 87.04296875) rotate(0 0.32931274650621845 75.26699285002425)"><path d="M-0.04 -0.05 C-0.13 25.05, -0.06 124.95, 0.04 150.2 M-1.51 -1.11 C-1.3 24.21, 2.01 126.52, 2.17 151.65" stroke="#000000" stroke-width="1" fill="none"></path></g><g transform="translate(288.21875 87.04296875) rotate(0 0.32931274650621845 75.26699285002425)"><path d="M-8.76 121.85 C-5.26 132.49, 0.62 142.46, 2.89 152.25 M-7.9 123.13 C-4.98 131.28, -2.57 140.07, 2.46 150.72" stroke="#000000" stroke-width="1" fill="none"></path></g><g transform="translate(288.21875 87.04296875) rotate(0 0.32931274650621845 75.26699285002425)"><path d="M11.76 121.42 C8.07 132.21, 6.77 142.32, 2.89 152.25 M12.62 122.7 C9.7 131.15, 6.28 140.06, 2.46 150.72" stroke="#000000" stroke-width="1" fill="none"></path></g></g><mask></mask><g stroke-linecap="round"><g transform="translate(272.78125 84.671875) rotate(0 -82.28723700475877 77.34146371366457)"><path d="M0.85 -0.44 C-26.57 25.22, -137.06 128.89, -164.61 154.98 M-0.16 -1.72 C-27.72 24.64, -137.96 130.43, -165.43 156.4" stroke="#000000" stroke-width="1" fill="none"></path></g><g transform="translate(272.78125 84.671875) rotate(0 -82.28723700475877 77.34146371366457)"><path d="M-152.84 129.93 C-156.16 138.27, -158.32 144.62, -165.41 155.57 M-151.61 130.3 C-155.57 136.82, -158.59 141.95, -164.81 155.45" stroke="#000000" stroke-width="1" fill="none"></path></g><g transform="translate(272.78125 84.671875) rotate(0 -82.28723700475877 77.34146371366457)"><path d="M-138.68 144.78 C-146.31 148.84, -152.65 150.79, -165.41 155.57 M-137.45 145.15 C-144.84 147.92, -151.37 149.36, -164.81 155.45" stroke="#000000" stroke-width="1" fill="none"></path></g></g><mask></mask><g stroke-linecap="round"><g transform="translate(104.98046875 266.43359375) rotate(0 85.67154913498092 73.30025345917795)"><path d="M-0.42 0.66 C27.68 24.94, 140.92 121.16, 169.57 145.34 M1.57 -0.04 C29.94 24.44, 143.5 122.12, 171.76 146.64" stroke="#000000" stroke-width="1" fill="none"></path></g><g transform="translate(104.98046875 266.43359375) rotate(0 85.67154913498092 73.30025345917795)"><path d="M144.81 134.34 C153.71 141.67, 165.17 144.67, 173.68 145.62 M144.18 135.14 C153.43 139.64, 162.34 142.15, 171.68 147.48" stroke="#000000" stroke-width="1" fill="none"></path></g><g transform="translate(104.98046875 266.43359375) rotate(0 85.67154913498092 73.30025345917795)"><path d="M158.22 118.81 C161.92 132.05, 168.23 141.02, 173.68 145.62 M157.59 119.6 C162.48 129.07, 167.14 136.5, 171.68 147.48" stroke="#000000" stroke-width="1" fill="none"></path></g></g><mask></mask><g stroke-linecap="round"><g transform="translate(309.03515625 411.671875) rotate(0 79.93735030281357 -70.615407885937)"><path d="M0.01 -0.74 C26.78 -24.67, 134.66 -119.14, 161.32 -142.72 M-1.45 1.49 C25.16 -22.31, 133.37 -116.88, 160.7 -141.17" stroke="#000000" stroke-width="1" fill="none"></path></g><g transform="translate(309.03515625 411.671875) rotate(0 79.93735030281357 -70.615407885937)"><path d="M145.09 -113.81 C151.31 -125.44, 157.33 -133.59, 161.56 -139.79 M146.64 -115.07 C150.03 -120.73, 153.24 -127.08, 160.86 -141.77" stroke="#000000" stroke-width="1" fill="none"></path></g><g transform="translate(309.03515625 411.671875) rotate(0 79.93735030281357 -70.615407885937)"><path d="M131.53 -129.21 C142.71 -135.33, 153.58 -137.98, 161.56 -139.79 M133.08 -130.47 C139.49 -132.79, 145.64 -135.79, 160.86 -141.77" stroke="#000000" stroke-width="1" fill="none"></path></g></g><mask></mask><g stroke-linecap="round"><g transform="translate(470.0390625 240.5078125) rotate(0 -83.42592413914389 -79.82833936515266)"><path d="M-0.08 0.72 C-27.71 -25.66, -138.65 -131.97, -166.34 -158.86 M-1.58 0.06 C-29.23 -26.58, -139.3 -133.77, -166.77 -160.38" stroke="#000000" stroke-width="1" fill="none"></path></g><g transform="translate(470.0390625 240.5078125) rotate(0 -83.42592413914389 -79.82833936515266)"><path d="M-138.2 -146.46 C-144.37 -149.39, -154.23 -155.23, -167.9 -161.25 M-138.44 -148.81 C-147.65 -151.15, -156.12 -154.48, -166.21 -160.64" stroke="#000000" stroke-width="1" fill="none"></path></g><g transform="translate(470.0390625 240.5078125) rotate(0 -83.42592413914389 -79.82833936515266)"><path d="M-152.5 -131.74 C-154.98 -138.4, -161.21 -147.97, -167.9 -161.25 M-152.74 -134.09 C-157.64 -140.84, -161.92 -148.48, -166.21 -160.64" stroke="#000000" stroke-width="1" fill="none"></path></g></g><mask></mask><g stroke-linecap="round"><g transform="translate(114.72265625 256) rotate(0 50.18590135308915 1.4630796536989692)"><path d="M-0.18 0.5 C16.84 0.68, 84.94 1.52, 102.11 2.14 M-1.74 -0.28 C15.15 0.54, 83.89 2.75, 101.28 3.21" stroke="#000000" stroke-width="1" fill="none"></path></g><g transform="translate(114.72265625 256) rotate(0 50.18590135308915 1.4630796536989692)"><path d="M73.62 12.98 C79.66 11.46, 91.5 8.75, 101.69 4.52 M72.5 12.47 C80.34 10.2, 86.86 9.18, 100.59 3.41" stroke="#000000" stroke-width="1" fill="none"></path></g><g transform="translate(114.72265625 256) rotate(0 50.18590135308915 1.4630796536989692)"><path d="M74.24 -7.53 C80.27 -2.98, 91.93 0.37, 101.69 4.52 M73.12 -8.04 C80.97 -5.5, 87.35 -1.71, 100.59 3.41" stroke="#000000" stroke-width="1" fill="none"></path></g></g><mask></mask><g stroke-linecap="round"><g transform="translate(290.16015625 403.421875) rotate(0 -0.41836315061897267 -60.95362415574493)"><path d="M-0.98 1 C-1 -19.66, -0.92 -102.43, -1.01 -122.91 M0.7 0.49 C0.68 -19.5, -1.06 -100.93, -1.54 -121.67" stroke="#000000" stroke-width="1" fill="none"></path></g><g transform="translate(290.16015625 403.421875) rotate(0 -0.41836315061897267 -60.95362415574493)"><path d="M11.01 -92.36 C5.72 -99.58, 5.04 -104.34, -0.27 -123.18 M9.47 -92.8 C6.79 -102.68, 1.82 -110.93, -2.31 -120.82" stroke="#000000" stroke-width="1" fill="none"></path></g><g transform="translate(290.16015625 403.421875) rotate(0 -0.41836315061897267 -60.95362415574493)"><path d="M-9.51 -91.91 C-10.2 -99.07, -6.29 -103.93, -0.27 -123.18 M-11.05 -92.36 C-7.57 -102.54, -6.39 -110.92, -2.31 -120.82" stroke="#000000" stroke-width="1" fill="none"></path></g></g><mask></mask><g stroke-linecap="round"><g transform="translate(463.58203125 259.25) rotate(0 -46.82459388745019 0.8025968343205818)"><path d="M-0.39 0.12 C-16.34 0.4, -79.49 0.8, -95.26 1.14 M1.61 -0.86 C-14.03 -0.37, -77.44 2.29, -93.15 2.47" stroke="#000000" stroke-width="1" fill="none"></path></g><g transform="translate(463.58203125 259.25) rotate(0 -46.82459388745019 0.8025968343205818)"><path d="M-65.06 -10.51 C-75.44 -6.47, -83.14 -2.64, -91.82 1.19 M-64.29 -7.73 C-72.28 -5.58, -78.42 -4.93, -93.44 2.21" stroke="#000000" stroke-width="1" fill="none"></path></g><g transform="translate(463.58203125 259.25) rotate(0 -46.82459388745019 0.8025968343205818)"><path d="M-64.47 10 C-74.96 7.09, -82.86 3.95, -91.82 1.19 M-63.7 12.78 C-71.99 10.42, -78.25 6.56, -93.44 2.21" stroke="#000000" stroke-width="1" fill="none"></path></g></g><mask></mask><g transform="translate(258.453125 456.9765625) rotate(0 30 12)"><text x="0" y="0" font-family="Virgil, Segoe UI Emoji" font-size="20px" fill="#000000" text-anchor="start" style="white-space: pre;" direction="ltr" dominant-baseline="text-before-edge">Player</text></g><g transform="translate(260.94140625 23.83203125) rotate(0 30 12)"><text x="0" y="0" font-family="Virgil, Segoe UI Emoji" font-size="20px" fill="#000000" text-anchor="start" style="white-space: pre;" direction="ltr" dominant-baseline="text-before-edge">Player</text></g><g transform="translate(10 240.6015625) rotate(0 30 12)"><text x="0" y="0" font-family="Virgil, Segoe UI Emoji" font-size="20px" fill="#000000" text-anchor="start" style="white-space: pre;" direction="ltr" dominant-baseline="text-before-edge">Player</text></g><g transform="translate(508.4296875 247.26953125) rotate(0 30 12)"><text x="0" y="0" font-family="Virgil, Segoe UI Emoji" font-size="20px" fill="#000000" text-anchor="start" style="white-space: pre;" direction="ltr" dominant-baseline="text-before-edge">Player</text></g><g transform="translate(229.546875 248.02734375) rotate(0 63.5 12)"><text x="0" y="0" font-family="Virgil, Segoe UI Emoji" font-size="20px" fill="#000000" text-anchor="start" style="white-space: pre;" direction="ltr" dominant-baseline="text-before-edge">Board State</text></g></svg>